<?xml version="1.0" standalone="no"?>
<!DOCTYPE svg PUBLIC "-//W3C//DTD SVG 20010904//EN"
 "http://www.w3.org/TR/2001/REC-SVG-20010904/DTD/svg10.dtd">
<svg version="1.0" xmlns="http://www.w3.org/2000/svg"
 width="694.000000pt" height="143.000000pt" viewBox="0 0 694.000000 143.000000"
 preserveAspectRatio="xMidYMid meet">

<g transform="translate(0.000000,143.000000) scale(0.100000,-0.100000)"
fill="#000000" stroke="none">
<path d="M3142 788 l3 -563 103 -3 102 -3 0 100 0 99 44 48 43 48 69 -108 c38
-59 81 -126 97 -147 l27 -39 115 0 c72 0 115 4 115 10 0 6 -61 104 -135 219
-74 114 -135 212 -135 217 0 5 43 56 96 114 52 58 118 131 146 163 l50 57
-134 0 -133 0 -123 -140 c-68 -77 -127 -140 -132 -140 -6 0 -10 122 -10 315
l0 315 -105 0 -105 0 2 -562z"/>
<path d="M4045 1317 l-90 -32 0 -530 0 -530 100 0 100 0 5 242 c5 241 5 242
30 268 70 75 176 71 233 -9 21 -29 22 -43 27 -266 l5 -235 103 -3 104 -3 -4
253 c-3 250 -3 254 -30 310 -82 174 -279 259 -451 192 -16 -6 -17 11 -17 185
0 146 -3 191 -12 190 -7 0 -53 -15 -103 -32z"/>
<path d="M6257 1218 l-88 -30 3 -332 3 -331 32 -66 c40 -80 100 -151 159 -185
55 -32 154 -64 200 -64 l34 0 0 99 0 99 -52 12 c-38 10 -65 25 -100 58 -62 58
-80 114 -76 238 l3 89 113 3 112 3 0 94 0 94 -112 3 -113 3 -3 123 c-2 88 -6
122 -15 121 -7 0 -52 -14 -100 -31z"/>
<path d="M4950 996 l-95 -33 -3 -371 -2 -372 105 0 105 0 0 405 c0 223 -3 405
-7 404 -5 0 -51 -15 -103 -33z"/>
<path d="M2901 1004 c-120 -32 -238 -133 -294 -252 l-32 -67 0 -230 0 -230
100 0 100 0 5 211 5 211 30 49 c35 57 104 103 164 111 l41 6 0 103 0 104 -32
-1 c-18 0 -57 -7 -87 -15z"/>
<path d="M322 618 l3 -393 103 -3 102 -3 0 238 c0 218 2 241 20 270 51 85 174
81 222 -8 16 -30 18 -60 18 -267 l0 -233 103 3 102 3 5 247 5 248 31 31 c56
56 148 47 191 -18 16 -23 19 -60 23 -268 l5 -240 100 0 100 0 3 239 c3 268 -3
307 -60 392 -59 86 -156 137 -268 138 -79 1 -119 -10 -184 -49 -58 -35 -58
-35 -85 -16 -86 60 -179 79 -288 58 -36 -7 -43 -6 -43 7 0 14 -16 16 -105 16
l-105 0 2 -392z"/>
<path d="M1890 994 c-191 -51 -316 -242 -289 -440 30 -219 260 -382 469 -331
36 8 75 18 88 22 17 6 22 3 22 -9 0 -15 13 -16 103 -14 l102 3 3 393 2 392
-105 0 c-100 0 -105 -1 -105 -21 0 -16 -4 -20 -17 -14 -94 36 -186 42 -273 19z
m195 -217 c74 -42 115 -133 94 -209 -15 -59 -50 -102 -102 -127 -125 -61 -267
28 -267 166 0 56 23 114 57 145 56 51 153 62 218 25z"/>
<path d="M5262 618 l3 -393 103 -3 102 -3 0 223 c0 245 5 270 63 312 39 29
125 29 163 1 59 -45 64 -68 64 -313 l0 -223 103 3 102 3 0 245 0 245 -28 60
c-81 172 -278 255 -450 189 -13 -5 -17 0 -17 20 l0 26 -105 0 -105 0 2 -392z"/>
</g>
</svg>
